<svg width="165" height="165" viewBox="0 0 165 165" fill="none" xmlns="http://www.w3.org/2000/svg">
<mask id="mask0_1_8" style="mask-type:luminance" maskUnits="userSpaceOnUse" x="0" y="0" width="165" height="165">
<path d="M164.944 0H0V164.946H164.944V0Z" fill="white"/>
</mask>
<g mask="url(#mask0_1_8)">
<path d="M164.764 87.6269C164.864 86.1269 164.944 84.0739 164.944 82.4729C164.944 80.6729 164.872 78.8039 164.715 76.5929C163.217 55.82 153.908 36.3852 138.659 22.1988C123.411 8.0124 103.356 0.127165 82.5296 0.129639C61.7027 0.132113 41.6496 8.02211 26.4049 22.2121C11.1603 36.4022 1.85535 55.8392 0.362346 76.6125C-1.13066 97.3857 5.29906 117.954 18.3578 134.178C31.4166 150.402 50.1353 161.079 70.7477 164.059C91.3601 167.04 112.337 162.104 129.457 150.244C146.577 138.384 158.57 120.48 163.023 100.135C163.023 100.135 163.285 99.1279 163.503 97.9349C164.043 94.8759 164.623 90.2689 164.764 87.6269ZM82.473 154.637C68.419 154.641 54.6695 150.542 42.9126 142.842C31.1557 135.142 21.903 124.176 16.2905 111.292C10.678 98.407 8.95003 84.1638 11.3186 70.3108C13.6872 56.4578 20.0493 43.5979 29.6239 33.3099C39.1984 23.0219 51.5687 15.7535 65.216 12.3971C78.8634 9.04071 93.1938 9.74235 106.448 14.4159C119.702 19.0895 131.303 27.5316 139.827 38.7057C148.351 49.8799 153.426 63.2998 154.43 77.3179C154.552 79.0229 154.636 80.7369 154.636 82.4729C154.636 84.2089 154.552 85.9219 154.43 87.6269H91.352C90.2174 89.5917 88.4662 91.1271 86.37 91.9952C84.2738 92.8633 81.9497 93.0154 79.7582 92.4281C77.5668 91.8407 75.6303 90.5467 74.2492 88.7467C72.8681 86.9467 72.1195 84.7412 72.1195 82.4724C72.1195 80.2036 72.8681 77.9982 74.2492 76.1982C75.6303 74.3981 77.5668 73.1041 79.7582 72.5168C81.9497 71.9294 84.2738 72.0816 86.37 72.9497C88.4662 73.8177 90.2174 75.3532 91.352 77.3179H144.097C142.813 61.8556 135.769 47.4394 124.359 36.9252C112.95 26.4111 98.0068 20.566 82.4913 20.5479C66.9758 20.5298 52.0195 26.34 40.5852 36.8276C29.151 47.3151 22.073 61.7149 20.7534 77.1742C19.4338 92.6334 23.9689 108.024 33.4603 120.298C42.9517 132.572 56.7069 140.833 72.001 143.445C87.2951 146.056 103.012 142.828 116.039 134.4C129.066 125.972 138.451 112.958 142.337 97.9369H152.952C149.426 114.006 140.516 128.387 127.698 138.699C114.88 149.011 98.9239 154.634 82.473 154.637ZM82.473 51.5499C77.0429 51.5432 71.7068 52.9665 67.0012 55.6765C62.2957 58.3864 58.3867 62.2877 55.6673 66.9878C52.9479 71.6879 51.514 77.0212 51.5099 82.4513C51.5058 87.8814 52.9315 93.2169 55.6437 97.9211C58.3559 102.625 62.2589 106.533 66.9603 109.25C71.6617 111.967 76.9957 113.398 82.4258 113.4C87.8559 113.402 93.1907 111.973 97.8937 109.259C102.597 106.544 106.502 102.64 109.217 97.9369H120.646C117.057 106.807 110.495 114.153 102.085 118.716C93.6739 123.279 83.938 124.775 74.5456 122.947C65.1531 121.119 56.6888 116.081 50.6032 108.697C44.5176 101.312 41.1896 92.0416 41.1896 82.4729C41.1896 72.9042 44.5176 63.6334 50.6032 56.2492C56.6888 48.8651 65.1531 43.8273 74.5456 41.9993C83.938 40.1713 93.6739 41.6669 102.085 46.2298C110.495 50.7926 117.057 58.1386 120.646 67.0089H109.215C106.508 62.3103 102.611 58.4076 97.9156 55.6938C93.2207 52.98 87.8938 51.5507 82.471 51.5499H82.473Z" fill="#B60636"/>
</g>
</svg>
